<svg id="Layer_1" enable-background="new 0 0 512 512" viewBox="0 0 512 512" xmlns="http://www.w3.org/2000/svg"><g clip-rule="evenodd" fill-rule="evenodd"><g><g><path d="m89.671 378.938 29.294 109.327c39.786-11.593 59.06-2.489 92.077 6.359 9.977 2.674 19.525 1.416 28.472-3.748l136.916-79.052c9.862-5.692 13.273-18.424 7.578-28.289-5.693-9.863-18.425-13.278-28.292-7.581l-73.108 42.211c3.783-5.635 5.219-12.809 3.335-19.839-3.454-12.891-16.867-20.636-29.76-17.182l-24.813 6.649c-10.892 2.918-21.305 1.548-31.071-4.09l-33.078-19.098c-19.057-11.003-39.437 10.31-77.55 14.333z" fill="#fecbaa"/><path d="m228.457 438.886c-8.042 2.154-16.557 2.34-24.617.166-3.796-1.014-6.052-4.915-5.037-8.712 1.014-3.796 4.915-6.052 8.711-5.038 5.843 1.576 11.445 1.393 17.27-.166 13.433-3.6 26.865-7.198 40.296-10.798 10.521-2.819 17.601-12.235 17.99-22.61 1.254 1.996 2.235 4.207 2.875 6.596 3.459 12.909-4.273 26.302-17.182 29.761-13.436 3.6-26.872 7.2-40.306 10.801z" fill="#fecbaa"/><path d="m89.671 378.938 13.556 50.592c30.264 16.237 64.855 25.456 101.605 25.456 67.94 0 128.517-31.49 167.961-80.66-5.475-1.874-11.699-1.476-17.075 1.628l-73.108 42.211c3.783-5.635 5.219-12.809 3.335-19.839-3.455-12.89-16.867-20.636-29.76-17.182l-24.813 6.649c-10.892 2.918-21.305 1.548-31.071-4.09l-33.078-19.098c-19.058-11.004-39.438 10.31-77.552 14.333z" fill="#fedfc5"/><path d="m228.457 438.886c-8.042 2.154-16.557 2.34-24.617.166-3.796-1.014-6.052-4.915-5.037-8.712s4.915-6.052 8.711-5.037c5.843 1.576 11.445 1.393 17.27-.166 13.433-3.599 26.865-7.198 40.296-10.797 10.521-2.819 17.602-12.235 17.99-22.61 1.254 1.996 2.235 4.207 2.875 6.596 3.459 12.91-4.274 26.301-17.182 29.76-13.436 3.6-26.872 7.2-40.306 10.8z" fill="#fecbaa"/><path d="m92.036 370.857 32.703 122.049c.646 2.408-.797 4.906-3.205 5.552l-18.248 4.89c-2.408.645-4.906-.798-5.551-3.205l-32.703-122.05c-.645-2.408.798-4.906 3.205-5.552l18.248-4.889c2.407-.646 4.906.797 5.551 3.205z" fill="#ffc328"/><path d="m92.036 370.857 16.452 61.398c-12.321-6.179-23.964-13.506-34.795-21.84l-8.66-32.322c-.645-2.408.798-4.907 3.205-5.552l18.248-4.889c2.406-.646 4.904.797 5.55 3.205z" fill="#ffd54f"/></g><g><path d="m422.329 133.067-29.294-109.328c-39.786 11.593-59.06 2.489-92.078-6.359-9.977-2.674-19.525-1.416-28.472 3.748l-136.915 79.052c-9.862 5.692-13.273 18.424-7.578 28.289 5.693 9.863 18.425 13.278 28.292 7.581l73.108-42.211c-3.783 5.635-5.219 12.809-3.335 19.839 3.455 12.891 16.867 20.636 29.76 17.182l24.813-6.649c10.892-2.919 21.306-1.548 31.071 4.09l33.078 19.098c19.058 11.004 39.438-10.31 77.55-14.332z" fill="#fecbaa"/><path d="m283.544 73.119c8.042-2.154 16.557-2.341 24.617-.166 3.796 1.014 6.052 4.915 5.038 8.712-1.014 3.796-4.915 6.052-8.711 5.038-5.843-1.576-11.445-1.394-17.27.166-13.432 3.6-26.865 7.198-40.297 10.798-10.52 2.819-17.601 12.235-17.99 22.61-1.254-1.996-2.235-4.207-2.875-6.596-3.459-12.909 4.273-26.302 17.182-29.761 13.435-3.601 26.871-7.2 40.306-10.801z" fill="#fecbaa"/><path d="m422.329 133.067-13.556-50.592c-30.264-16.237-64.855-25.456-101.604-25.456-67.941 0-128.517 31.49-167.962 80.66 5.475 1.874 11.699 1.476 17.075-1.628l73.108-42.211c-3.783 5.635-5.219 12.809-3.336 19.839 3.455 12.89 16.868 20.636 29.76 17.182l24.813-6.649c10.892-2.919 21.305-1.548 31.071 4.09l33.078 19.098c19.059 11.004 39.438-10.311 77.553-14.333z" fill="#fedfc5"/><path d="m283.544 73.119c8.042-2.154 16.557-2.341 24.617-.166 3.796 1.014 6.052 4.915 5.038 8.712-1.015 3.797-4.915 6.052-8.711 5.037-5.842-1.576-11.445-1.394-17.27.166-13.432 3.599-26.865 7.198-40.297 10.797-10.52 2.819-17.602 12.235-17.99 22.61-1.254-1.996-2.235-4.207-2.875-6.596-3.459-12.91 4.274-26.301 17.182-29.76 13.436-3.6 26.871-7.201 40.306-10.8z" fill="#fecbaa"/><path d="m419.965 141.148-32.703-122.049c-.646-2.408.797-4.906 3.205-5.552l18.248-4.89c2.408-.645 4.906.798 5.551 3.206l32.703 122.05c.645 2.408-.798 4.906-3.205 5.552l-18.248 4.889c-2.408.645-4.906-.798-5.551-3.206z" fill="#ffc328"/><path d="m419.965 141.148-16.452-61.398c12.321 6.179 23.964 13.506 34.795 21.84l8.66 32.322c.645 2.408-.798 4.907-3.205 5.552l-18.248 4.889c-2.406.645-4.905-.798-5.55-3.205z" fill="#ffd54f"/></g><g><path d="m255.999 345.462c37.009-37.201 82.011-62.396 92.586-115.657 10.518-52.978-53.671-89.48-92.586-39.557-38.915-49.923-103.105-13.421-92.587 39.557 10.575 53.261 55.578 78.456 92.587 115.657z" fill="#eb4e5c"/><path d="m310.668 295.215c17.905-18.01 32.473-37.991 37.917-65.41 10.519-52.978-53.671-89.48-92.586-39.557-17.669-22.667-40.548-27.515-59.279-21.096-.002.296-.011.59-.011.887 0 65.469 50.041 119.241 113.959 125.176z" fill="#ff6372"/></g></g><path d="m141.448 257.494c1.58 3.83-.231 8.221-4.061 9.801l-29.289 12.121c-.929.391-1.91.571-2.858.571-2.953 0-5.74-1.74-6.933-4.632-1.589-3.83.231-8.22 4.061-9.8l29.28-12.117c3.829-1.584 8.22.236 9.8 4.056zm272.251 17.861c-1.202 2.891-3.99 4.632-6.933 4.632-.958 0-1.929-.179-2.868-.571l-29.28-12.121c-3.83-1.58-5.65-5.971-4.07-9.801 1.589-3.82 5.971-5.641 9.8-4.056l29.289 12.117c3.821 1.58 5.642 5.971 4.062 9.8zm-274.519 44.59 19.299-25.139c2.518-3.292 7.23-3.9 10.518-1.382 3.283 2.519 3.9 7.23 1.382 10.522l-19.3 25.129c-1.481 1.929-3.712 2.943-5.962 2.943-1.589 0-3.198-.514-4.561-1.561-3.277-2.523-3.9-7.23-1.376-10.512zm283.556-113.44c.542 4.099-2.349 7.872-6.457 8.41l-31.421 4.15c-.33.052-.66.071-.99.071-3.698 0-6.919-2.75-7.419-6.523-.542-4.108 2.339-7.876 6.447-8.419l31.421-4.146c4.113-.542 7.881 2.349 8.419 6.457zm-333.471 0c.543-4.108 4.311-6.999 8.414-6.457l31.421 4.146c4.108.542 6.999 4.311 6.457 8.419-.5 3.773-3.717 6.523-7.428 6.523-.33 0-.66-.019-.99-.071l-31.421-4.15c-4.109-.538-7-4.312-6.453-8.41zm264.252 88.301 19.3 25.139c2.533 3.283 1.91 7.99-1.377 10.513-1.363 1.047-2.971 1.561-4.561 1.561-2.25 0-4.481-1.014-5.952-2.943l-19.3-25.129c-2.528-3.292-1.91-8.004 1.382-10.522 3.278-2.519 7.99-1.902 10.508 1.381zm-12.291-66.469c4.952-24.912-8.759-43.339-24.539-50.56-14.767-6.759-36.92-5.82-54.767 17.078-1.424 1.821-3.613 2.891-5.919 2.891-2.311 0-4.49-1.071-5.915-2.891-11.866-15.229-25.648-20.748-37.877-20.748-6.169 0-11.951 1.401-16.899 3.669-15.781 7.221-29.483 25.648-24.544 50.56 7.48 37.67 33.991 60.96 62.054 85.608 7.66 6.73 15.526 13.649 23.181 21.002 7.655-7.353 15.526-14.272 23.186-21.002 28.062-24.647 54.559-47.937 62.039-85.607zm-18.3-64.2c-11.777-5.391-24.577-6.542-37.019-3.344-10.928 2.82-21.13 8.994-29.907 18.031-8.773-9.037-18.983-15.21-29.902-18.031-12.442-3.207-25.252-2.047-37.029 3.344-25.011 11.437-38.59 39.038-33.01 67.129 8.466 42.651 36.831 67.567 66.86 93.951 9.258 8.136 18.838 16.559 27.77 25.53 1.396 1.42 3.32 2.207 5.311 2.207 1.995 0 3.905-.788 5.315-2.207 8.933-8.971 18.512-17.394 27.77-25.53 30.03-26.384 58.394-51.301 66.851-93.951 5.58-28.091-7.989-55.691-33.01-67.129zm55.881 233.162c-.91 3.424-3.09 6.278-6.127 8.027l-136.913 79.047c-7.249 4.183-14.701 5.174-22.78 3.004-4.429-1.193-8.617-2.382-12.668-3.542-23.441-6.678-42.321-12.051-71.779-5.73l-25.134-93.777c11.513-2.443 21.314-6.122 29.492-9.192 14.96-5.622 23.12-8.339 30.572-4.042l33.076 19.102c11.532 6.65 23.903 8.282 36.774 4.839l24.808-6.65c8.952-2.401 18.168 2.934 20.568 11.881 1.311 4.891.302 9.871-2.339 13.758-.062.104-.127.203-.189.302-2.179 3.08-5.41 5.462-9.348 6.513l-36.283 9.716c-5.891 1.58-11.622 1.641-17.05.169-3.999-1.075-8.117 1.292-9.187 5.292-1.08 3.999 1.278 8.122 5.277 9.202 3.91 1.047 7.9 1.575 11.942 1.575 4.249 0 8.56-.59 12.899-1.745l36.288-9.721c7.075-1.901 12.951-6.061 17.069-11.494l71.694-41.387c3.037-1.759 6.589-2.212 10.018-1.302 3.419.92 6.268 3.099 8.032 6.131 1.75 3.039 2.207 6.6 1.288 10.024zm-274.6 98.036 12.522-3.358-31.171-116.322-12.522 3.363zm269.162-128.679c7.301 1.962 13.381 6.622 17.14 13.131 3.749 6.499 4.749 14.097 2.792 21.389-1.953 7.301-6.612 13.39-13.121 17.14l-136.913 79.052c-7.065 4.089-14.489 6.127-22.139 6.127-3.948 0-7.961-.538-12.032-1.627-4.537-1.221-8.787-2.429-12.899-3.599-21.988-6.273-38.401-10.942-63.898-5.632.311 2.57-.198 5.169-1.519 7.448-1.613 2.792-4.202 4.782-7.301 5.612l-18.253 4.891c-1.038.278-2.08.42-3.127.42-2.08 0-4.141-.552-5.999-1.632-2.792-1.599-4.782-4.198-5.613-7.301l-32.699-122.048c-.83-3.103-.401-6.344 1.198-9.122 1.613-2.792 4.212-4.778 7.311-5.608l18.243-4.891c3.108-.83 6.348-.41 9.131 1.198 2.788 1.613 4.778 4.212 5.608 7.311l.24.882c10.669-2.193 19.861-5.613 28.11-8.702 15.767-5.929 29.398-11.036 43.339-2.99l33.081 19.102c8.079 4.66 16.38 5.75 25.379 3.339l24.817-6.65c16.932-4.542 34.402 5.551 38.944 22.478.566 2.141.91 4.292 1.038 6.424l57.743-33.341c6.509-3.758 14.107-4.753 21.399-2.801zm53.069-230.322-30.36-113.336c-.009 0-.009 0-.009-.014l-.793-2.967 12.513-3.353 31.166 116.321zm-47.329.523c8.178-3.07 17.979-6.74 29.477-9.192l-25.119-93.767c-29.468 6.315-48.348.938-71.78-5.74-4.052-1.151-8.24-2.354-12.668-3.542-8.094-2.16-15.541-1.179-22.78 3l-136.918 79.062c-3.033 1.749-5.212 4.598-6.131 8.018-.92 3.434-.462 6.98 1.297 10.022 1.75 3.037 4.603 5.207 8.023 6.126 3.429.92 6.99.462 10.018-1.287l71.699-41.401c4.122-5.429 9.994-9.588 17.074-11.48l36.278-9.73c8.471-2.269 16.828-2.321 24.841-.16 4 1.08 6.367 5.202 5.287 9.188-1.08 4.004-5.198 6.372-9.202 5.292-5.415-1.457-11.159-1.41-17.036.17l-36.293 9.72c-3.928 1.061-7.16 3.429-9.348 6.523-.061.099-.118.198-.189.297-2.641 3.891-3.65 8.862-2.339 13.758 2.396 8.952 11.626 14.272 20.577 11.885l24.808-6.655c12.862-3.448 25.233-1.82 36.76 4.844l33.081 19.097c7.463 4.301 15.622 1.57 30.583-4.048zm75.109-4.891c1.707 6.41-2.099 13.018-8.508 14.739l-18.253 4.891c-1.028.278-2.08.41-3.118.41-2.089 0-4.15-.552-6.009-1.622-2.783-1.608-4.782-4.198-5.612-7.296l-.231-.891c-10.678 2.188-19.861 5.608-28.11 8.712-9.938 3.731-19.031 7.14-27.879 7.14-5.202 0-10.31-1.184-15.47-4.155l-33.081-19.097c-8.07-4.66-16.371-5.759-25.379-3.339l-24.809 6.65c-16.941 4.528-34.411-5.551-38.953-22.493-.571-2.137-.911-4.287-1.028-6.41l-57.748 33.34c-4.32 2.491-9.131 3.769-14.012 3.769-2.462 0-4.938-.321-7.391-.977-7.291-1.962-13.381-6.622-17.13-13.121-3.759-6.509-4.75-14.111-2.797-21.398 1.957-7.301 6.617-13.38 13.116-17.139l136.924-79.052c10.715-6.183 22.209-7.702 34.156-4.5 4.551 1.217 8.791 2.429 12.899 3.608 21.993 6.273 38.401 10.942 63.912 5.622-.311-2.57.198-5.16 1.523-7.452 1.599-2.787 4.198-4.778 7.296-5.608l18.253-4.891c3.099-.83 6.339-.401 9.117 1.207 2.792 1.613 4.782 4.202 5.613 7.301z"/></g></svg>