<svg id="Layer_1" enable-background="new 0 0 512 512" height="512" viewBox="0 0 512 512" width="512" xmlns="http://www.w3.org/2000/svg"><g><g clip-rule="evenodd" fill-rule="evenodd"><path d="m418.621 471.785c-1.559-14.469-5.143-27.029-10.889-37.676-9.209-23.803-44.141-46.053-104.781-66.748-7.537-3.469-11.486-11.961-11.725-25.359 24.164-23.205 34.094-57.775 28.947-119.736-2.869-38.157-33.494-57.174-64.236-57.174-30.617 0-61.359 19.018-64.111 57.174-5.262 61.961 4.785 96.531 28.824 119.736-.119 13.398-4.061 21.891-11.721 25.359-60.525 20.695-95.455 42.945-104.785 66.748-5.623 10.646-9.328 23.207-10.883 37.676 0 14.955 12.322 27.273 27.393 27.273h270.696c14.949.001 27.271-12.318 27.271-27.273z" fill="#f6dccd"/><path d="m333.332 425.02c-10.168-17.467-44.855-8.016-38.158 22.129 3.352 14.83 18.301 28.707 38.158 38.635 19.857-9.928 34.809-23.805 38.158-38.635 6.699-30.145-27.992-39.596-38.158-22.129z" fill="#fe646f"/><path d="m389.91 143.799h46.773c14.951 0 27.15-12.202 27.15-27.034v-76.679c0-14.95-12.199-27.148-27.15-27.148h-361.486c-14.828 0-27.031 12.198-27.031 27.148v76.678c0 14.832 12.203 27.034 27.031 27.034h287.561v33.969z" fill="#d6ebfe"/><path d="m255.938 37.1 15.671 24.16 27.75 7.419-18.179 22.249 1.55 28.709-26.792-10.29-26.795 10.29 1.558-28.709-18.06-22.249 27.748-7.419z" fill="#ffe177"/><path d="m136.682 37.1 15.672 24.16 27.748 7.419-18.182 22.249 1.557 28.709-26.795-10.29-26.791 10.29 1.552-28.709-18.062-22.249 27.75-7.419z" fill="#ffe177"/><path d="m375.199 37.1-15.549 24.16-27.755 7.419 18.064 22.249-1.557 28.709 26.797-10.29 26.793 10.29-1.433-28.709 18.062-22.249-27.752-7.419z" fill="#ffe177"/></g><path d="m300.914 62.819-25.473-6.821-14.355-22.248c-1.199-1.674-3.111-2.753-5.148-2.753-2.15 0-4.068 1.08-5.143 2.876l-14.234 22.126-25.479 6.821c-2.033.478-3.584 2.03-4.305 3.948-.6 2.03-.242 4.186 1.078 5.738l16.623 20.454-1.434 26.315c-.119 2.155.836 4.072 2.514 5.267 1.078.837 2.271 1.195 3.584 1.195.727 0 1.439-.119 2.156-.358l24.639-9.574 24.525 9.574c1.912.717 4.186.476 5.861-.837 1.676-1.195 2.633-3.112 2.512-5.142l-1.318-26.44 16.508-20.454c1.314-1.552 1.797-3.708 1.076-5.738-.597-1.918-2.15-3.471-4.187-3.949zm-24.4 24.28c-.955 1.195-1.432 2.633-1.314 4.187l.959 19.261-18.064-6.939c-.719-.361-1.434-.48-2.156-.48-.713 0-1.553.119-2.27.48l-17.943 6.939 1.078-19.261c0-1.554-.48-2.992-1.436-4.187l-12.084-14.952 18.662-5.022c1.439-.357 2.752-1.313 3.588-2.514l10.404-16.265 10.529 16.265c.838 1.201 2.033 2.157 3.59 2.514l18.662 5.022zm136.726 344.499c-10.174-25.598-45.461-48.566-108.02-69.855-4.664-2.395-7.295-8.135-7.773-17.225 25.117-25.602 33.73-62.561 28.828-122.73-3.23-43.179-38.758-62.796-70.338-62.796-31.695 0-67.105 19.617-70.211 62.796-5.141 60.05 3.467 97.009 28.707 122.73-.48 9.09-3.113 14.951-7.779 17.225-62.435 21.288-97.845 44.257-108.133 69.855-5.857 11.363-9.805 24.641-11.357 39.59v.598c0 18.422 14.951 33.379 33.49 33.379h270.696c18.42 0 33.369-14.957 33.369-33.379 0-.236 0-.477 0-.598-1.672-15.188-5.5-28.467-11.479-39.59zm-21.89 61.363h-270.696c-11.602 0-21.176-9.33-21.295-20.816 1.438-13.398 4.904-25.117 10.174-35.162.117-.244.236-.482.236-.604 8.611-22.008 42.701-43.297 101.072-63.275.24 0 .359-.121.6-.121 10.049-4.547 15.195-14.949 15.314-30.859 0-1.674-.719-3.348-1.918-4.547-23.803-22.965-31.818-57.297-26.914-114.833 2.514-35.648 30.98-51.552 58.014-51.552 27.035 0 55.506 15.904 58.135 51.552 4.787 57.659-3.346 91.987-27.031 114.833-1.197 1.199-1.795 2.873-1.795 4.547.121 15.789 5.264 26.195 15.072 30.742.238.117.479.238.596.238 58.617 19.979 92.584 41.268 101.078 63.158.119.238.24.477.361.721 5.26 9.807 8.609 21.527 10.164 35.162-.24 11.486-9.57 20.816-21.167 20.816zm-41.871-82.773c-6.217 0-11.84 2.031-16.146 5.621-4.305-3.59-10.049-5.621-16.146-5.621-8.854 0-17.227 4.063-22.607 10.764-5.859 7.178-7.777 16.986-5.385 27.51 3.592 15.793 18.662 31.461 41.389 42.826.836.359 1.793.598 2.75.598.959 0 1.793-.238 2.75-.598 22.727-11.365 37.803-27.033 41.391-42.826 2.273-10.523.361-20.332-5.387-27.51-5.383-6.702-13.875-10.764-22.609-10.764zm16.031 35.646c-2.635 11.6-14.352 23.561-32.178 33.131-17.941-9.57-29.545-21.531-32.18-33.131-1.553-6.939-.596-12.918 2.873-17.229 3.113-3.826 8.018-6.221 13.16-6.221 4.781 0 8.729 2.156 10.887 5.744 1.074 1.795 3.105 2.988 5.26 2.988s4.188-1.193 5.262-2.988c2.152-3.588 6.104-5.744 10.885-5.744 5.143 0 10.053 2.395 13.16 6.221 3.349 4.311 4.424 10.29 2.871 17.229zm71.293-438.998h-361.606c-18.299 0-33.131 14.954-33.131 33.25v76.559c0 18.302 14.832 33.254 33.131 33.254h281.461v27.869c0 2.634 1.674 4.903 4.068 5.744.598.239 1.313.36 2.031.36 1.799 0 3.592-.836 4.783-2.272l25.24-31.7h44.021c18.301 0 33.131-14.952 33.131-33.254v-76.56c.002-18.296-14.828-33.25-33.129-33.25zm20.935 109.809c0 11.604-9.457 21.05-20.936 21.05h-46.892c-1.91 0-3.584.84-4.785 2.274l-16.264 20.458v-16.628c0-3.349-2.754-6.104-6.104-6.104h-287.56c-11.604 0-20.934-9.446-20.934-21.05v-76.559c0-11.599 9.33-21.048 20.934-21.048h361.605c11.479 0 20.936 9.449 20.936 21.048zm-276.08-53.826-25.479-6.821-14.353-22.248c-1.195-1.674-3.113-2.753-5.145-2.753-2.154 0-4.064 1.08-5.141 2.876l-14.236 22.126-25.48 6.821c-2.031.478-3.586 2.03-4.305 3.948-.594 2.03-.238 4.186 1.076 5.738l16.627 20.454-1.439 26.315c-.119 2.155.844 4.072 2.518 5.267 1.67 1.313 3.826 1.554 5.738.837l24.643-9.574 24.52 9.574c.719.239 1.559.358 2.275.358 1.195 0 2.512-.358 3.586-1.195 1.678-1.195 2.633-3.112 2.514-5.267l-1.432-26.315 16.621-20.454c1.318-1.552 1.799-3.708 1.082-5.738-.6-1.918-2.157-3.471-4.19-3.949zm-24.523 24.28c-.955 1.195-1.432 2.633-1.313 4.187l1.074 19.261-18.063-6.939c-.715-.361-1.434-.48-2.152-.48-.715 0-1.557.119-2.273.48l-17.941 6.939 1.074-19.261c0-1.554-.479-2.992-1.434-4.187l-12.082-14.952 18.662-5.022c1.436-.357 2.748-1.313 3.586-2.514l10.408-16.265 10.525 16.265c.836 1.201 2.037 2.157 3.592 2.514l18.539 5.022zm263.041-24.28-25.484-6.821-14.352-22.248c-1.193-1.674-3.105-2.753-5.141-2.753-2.15 0-4.068 1.08-5.145 2.876l-14.232 22.126-25.479 6.821c-2.033.478-3.592 2.03-4.309 3.948-.596 2.03-.238 4.186 1.078 5.738l16.627 20.454-1.436 26.315c-.119 2.155.838 4.072 2.512 5.267 1.078.837 2.273 1.195 3.586 1.195.719 0 1.438-.119 2.156-.358l24.641-9.574 24.643 9.574c2.031.717 4.188.476 5.861-.837 1.674-1.195 2.627-3.112 2.51-5.267l-1.436-26.315 16.51-20.454c1.313-1.552 1.793-3.708 1.072-5.738-.596-1.918-2.147-3.471-4.182-3.949zm-24.401 24.28c-.963 1.195-1.439 2.633-1.32 4.187l1.082 19.261-18.184-6.939c-.721-.361-1.438-.48-2.154-.48-.719 0-1.555.119-2.27.48l-17.945 6.939 1.074-19.261c0-1.554-.477-2.992-1.438-4.187l-12.078-14.952 18.658-5.022c1.438-.357 2.756-1.313 3.592-2.514l10.406-16.265 10.525 16.265c.838 1.201 2.033 2.157 3.588 2.514l18.66 5.022z"/></g></svg>