<svg clip-rule="evenodd" fill-rule="evenodd" stroke-linejoin="round" stroke-miterlimit="2" viewBox="0 0 510 510" xmlns="http://www.w3.org/2000/svg"><g><g><path d="m483.795 221.169c-33.597 0-50.465 40.71-26.704 64.471 4.373 4.374 4.373 11.488 0 15.861l-24.124 24.124c-4.373 4.374-11.487 4.374-15.861 0-23.761-23.761-64.471-6.892-64.471 26.704 0 6.207-5.019 11.205-11.206 11.205h-34.12c-6.187 0-11.205-4.998-11.205-11.205 0-33.637-40.69-50.485-64.472-26.704-4.373 4.374-11.467 4.374-15.84 0l-24.144-24.124c-4.374-4.373-4.374-11.487 0-15.861 23.761-23.761 6.912-64.471-26.704-64.471-6.187 0-11.205-5.018-11.205-11.205v-34.121c0-6.187 5.018-11.205 11.205-11.205 33.616 0 50.465-40.71 26.704-64.471-4.374-4.374-4.374-11.468 0-15.841l24.144-24.144c4.373-4.374 11.467-4.374 15.84 0 23.761 23.761 64.472 6.912 64.472-26.704 0-6.187 5.018-11.205 11.205-11.205h34.12c6.187 0 11.206 5.018 11.206 11.205 0 33.616 40.71 50.465 64.471 26.704 4.374-4.374 11.488-4.374 15.861 0l24.124 24.144c4.373 4.373 4.373 11.467 0 15.841-23.761 23.761-6.893 64.471 26.704 64.471 6.207 0 11.205 5.018 11.205 11.205v34.121c0 6.187-4.998 11.205-11.205 11.205z" fill="#fdcd56"/><path d="m324.379 293.046c55.137 0 100.133-44.995 100.133-100.132 0-55.162-44.996-100.133-100.133-100.133-55.161 0-100.133 44.971-100.133 100.133 0 55.137 44.972 100.132 100.133 100.132z" fill="#f4f6f8"/><path d="m327.034 166.646c6.3-9.701 13.276-14.555 25.688-14.555 15.647 0 28.34 11.335 28.34 25.294 0 24.664-26.954 49.328-54.577 73.986-1.205 1.078-3.006 1.078-4.211 0-27.624-24.658-54.578-49.322-54.578-73.986 0-13.959 12.694-25.294 28.34-25.294 12.413 0 19.389 4.854 25.695 14.555.596.924 1.547 1.44 2.652 1.44 1.098 0 2.048-.516 2.651-1.44z" fill="#f76c82" fill-rule="nonzero"/></g><g><path d="m195.726 262.031c6.156 0 11.183-5.027 11.183-11.166v-16.655c0-37.687-30.831-68.518-68.518-68.518-37.671 0-68.501 30.831-68.501 68.518v16.655c0 6.139 5.01 11.166 11.166 11.166z" fill="#636c77"/><path d="m103.439 295.341 69.903-.29v40.628l72.999 16.963c9.165 2.223 15.441 10.157 15.441 19.579v110.506c0 1.326-.527 2.598-1.465 3.536-.938.937-2.209 1.464-3.535 1.464-31.756 0-205.026 0-236.782 0-1.326 0-2.598-.527-3.536-1.464-.937-.938-1.464-2.21-1.464-3.536 0-22.17 0-110.506 0-110.506 0-9.422 6.258-17.441 15.441-19.579l72.998-16.963z" fill="#a4d4ff"/><path d="m131.53 487.727v-113.015c0-3.864 3.136-7 7-7 3.863 0 7 3.136 7 7v113.015z" fill="#e4e8eb"/><path d="m103.439 335.679 34.952 46.409 34.951-46.409v-70.689h-70.365z" fill="#b9835e"/><path d="m218.775 402.47c0 3.747-3.041 6.788-6.788 6.788-3.746 0-6.787-3.041-6.787-6.788v-22.776c0-36.742-30.067-66.809-66.809-66.809-34.088 0-62.431 25.893-66.343 58.987-.44 3.721-3.817 6.384-7.538 5.944-3.72-.439-6.384-3.817-5.944-7.537 4.707-39.819 38.811-70.97 79.825-70.97 44.208 0 80.384 36.177 80.384 80.385z" fill="#a9b0bb"/><path d="m78.492 434.533c-3.434-.335-6.122-3.233-6.122-6.755 0-3.747 3.041-6.788 6.788-6.788.061 0 1.684.287 3.75-.018 1.243-.183 2.817-.561 3.919-1.858 2.212-2.605 2.347-7.35-.03-15.839l-.001-.005c-2.487-8.902-5.911-15.634-9.971-20.086-3.129-3.431-6.532-5.398-10.067-5.398s-6.939 1.968-10.071 5.399c-4.062 4.452-7.489 11.184-9.979 20.087-2.372 8.489-2.232 13.236-.019 15.841 1.102 1.297 2.676 1.676 3.918 1.859 2.063.305 3.682.018 3.739.018 3.747 0 6.788 3.041 6.788 6.788 0 3.518-2.682 6.414-6.112 6.754 0 0-.155.016-.282.029-2.138.21-12.252.573-18.396-6.658-3.97-4.672-6.966-13.057-2.711-28.285l.001-.002c6.809-24.346 20.584-35.405 33.124-35.405 12.541 0 26.312 11.058 33.112 35.405 4.264 15.228 1.272 23.614-2.696 28.286-6.14 7.229-16.254 6.869-18.404 6.659-.125-.012-.278-.028-.278-.028z" fill="#a9b0bb"/><path d="m79.158 437.475c5.348 0 9.697-4.349 9.697-9.697 0-5.349-4.349-9.697-9.697-9.697-5.324 0-9.697 4.348-9.697 9.697 0 5.348 4.373 9.697 9.697 9.697z" fill="#636c77"/><path d="m54.346 437.475c5.349 0 9.697-4.349 9.697-9.697 0-5.349-4.348-9.697-9.697-9.697-5.323 0-9.697 4.348-9.697 9.697 0 5.348 4.374 9.697 9.697 9.697z" fill="#636c77"/><path d="m211.987 419.587c9.439 0 17.134-7.695 17.134-17.117 0-9.439-7.695-17.133-17.134-17.133s-17.133 7.694-17.133 17.133c0 9.422 7.694 17.117 17.133 17.117z" fill="#636c77"/><path d="m87.348 278.327c0 28.061 22.965 51.043 51.043 51.043 28.077 0 51.059-22.965 51.059-51.043v-39.739c-11.371-5.164-21.733-18.365-29.599-32.849-22.862 17.237-44.374 32.541-72.503 32.849z" fill="#d5a889"/><g fill="#b9835e"><path d="m115.939 252.557c5.366 0 9.697 4.331 9.697 9.697 0 5.341-4.331 9.697-9.697 9.697-5.342 0-9.697-4.356-9.697-9.697 0-5.366 4.355-9.697 9.697-9.697z"/><path d="m160.843 252.557c5.365 0 9.697 4.331 9.697 9.697 0 5.341-4.332 9.697-9.697 9.697-5.342 0-9.697-4.356-9.697-9.697 0-5.366 4.355-9.697 9.697-9.697z"/><path d="m148.095 295.661c2.995-2.251 7.254-1.647 9.504 1.348 2.251 2.995 1.647 7.253-1.348 9.504-3.576 2.688-10.267 4.816-17.997 4.816-7.751 0-14.439-2.129-18.014-4.816-2.995-2.251-3.599-6.509-1.348-9.504 2.25-2.995 6.509-3.599 9.504-1.348 1.932 1.452 5.669 2.092 9.858 2.092 4.175 0 7.91-.641 9.841-2.092z"/><path d="m189.45 246.18h7.37c8.841 0 16.074 7.233 16.074 16.074 0 8.84-7.233 16.073-16.074 16.073h-7.37z"/><path d="m87.348 246.18h-7.387c-8.84 0-16.073 7.233-16.073 16.074 0 8.84 7.233 16.073 16.073 16.073h7.387z"/></g><path d="m173.342 335.679 20.092 4.668-33.942 50.29c-1.3 1.933-3.232 3.061-5.558 3.284-2.325.222-4.411-.548-6.07-2.223l-9.473-9.61z" fill="#e4e8eb"/><path d="m138.391 382.088-9.473 9.61c-1.642 1.675-3.728 2.445-6.071 2.223-2.325-.223-4.24-1.351-5.557-3.284l-33.943-50.29 20.092-4.668z" fill="#e4e8eb"/></g></g></svg>